# xmcd
#
# Track frame offsets:
#	150
#	17485
#	37815
#	66020
#
# Disc length: 1056 seconds
# Revision: 0
# Processed by: cddbd v1.5.2PL0 Copyright (c) Steve Scherf et al.
# Submitted via: dBpowerAMP V12.0
#
DISCID=23041e04
DTITLE=Black Box - Native New Yorker
DYEAR=1997
DGENRE=R&B
TTITLE0=Native New Yorker [Radio Mix]
TTITLE1=Native New Yorker [Steve “Silk” Hurley R&B Mix]
TTITLE2=Native New Yorker [Studio 54 (1997) Big Apple Mix]
TTITLE3=I Got The Vibration - A Positive Vibration [Lelewel Freak Radio Edit]
EXTD=
EXTT0=
EXTT1=
EXTT2=
EXTT3=
PLAYORDER=
